<svg id="Group_2308" data-name="Group 2308" xmlns="http://www.w3.org/2000/svg" width="30" height="29" viewBox="0 0 30 29">
  <rect id="Rectangle_1432" data-name="Rectangle 1432" width="30" height="29" fill="#f6931a"/>
  <path id="Path_1495" data-name="Path 1495" d="M2551.82,921.536a2.855,2.855,0,0,1,1.4,1.551,3.194,3.194,0,0,1-2.9,3.941c-.618.032-1.222-.129-1.845-.044-.312.042-.423.151-.474.429-.058.314-.149.621-.226.932-.195.788-.59.919-1.345.527-.243-.126-.236-.23-.185-.425.118-.455.235-.911.343-1.368a.8.8,0,0,0-.848-.826c-.17.037-.164.194-.193.308-.134.509-.262,1.02-.371,1.535-.066.314-.162.427-.528.327-.981-.267-.975-.24-.757-1.213.1-.436.442-.938.233-1.291s-.811-.283-1.237-.409c-.378-.112-.76-.215-1.147-.29-.261-.051-.323-.148-.186-.376a2.492,2.492,0,0,0,.112-.258c.146-.325.215-.741.46-.949s.628.083.953.135c.457.073.657-.131.758-.543.476-1.935.966-3.867,1.443-5.8.145-.589-.027-.872-.613-1.064-1.015-.332-1-.328-.735-1.361.083-.324.23-.374.515-.3.636.168,1.282.3,1.91.491.4.124.55-.027.629-.39.108-.5.249-.984.364-1.477.053-.227.138-.283.39-.237,1.114.2,1.116.192.845,1.277-.05.2-.089.4-.138.6-.154.628,0,.836.642.831.237,0,.361-.121.41-.371.094-.479.23-.95.34-1.426.063-.269.179-.358.478-.287,1.032.245,1.03.231.771,1.292a2.624,2.624,0,0,0-.212,1.2c.1.338.654.357,1,.536,1.546.8,2.082,1.981,1.529,3.422A2.116,2.116,0,0,1,2551.82,921.536Zm-3.245,3.448c.15,0,.3.012.451,0a1.35,1.35,0,0,0,.627-2.568,6.285,6.285,0,0,0-2.489-.82c-.221-.031-.345-.012-.4.242-.167.731-.369,1.454-.54,2.184a.48.48,0,0,0,.414.657A9.814,9.814,0,0,0,2548.576,924.984Zm.708-4.551c.948.031,1.554-.448,1.565-1.29a1.383,1.383,0,0,0-.909-1.246,7.911,7.911,0,0,0-1.668-.513c-.335-.094-.392-.037-.454.213-.178.71-.337,1.424-.527,2.131-.062.228-.05.335.206.4A9.646,9.646,0,0,0,2549.284,920.433Z" transform="translate(-2532.457 -906.282)" fill="#fefcfb"/>
</svg>
