<svg xmlns="http://www.w3.org/2000/svg" width="30" height="29" viewBox="0 0 30 29">
  <g id="Group_3632" data-name="Group 3632" transform="translate(-11994 -12178)">
    <g id="Group_2323" data-name="Group 2323" transform="translate(25072 24969)">
      <g id="Group_3634" data-name="Group 3634">
        <rect id="Rectangle_1731" data-name="Rectangle 1731" width="30" height="29" transform="translate(-13078 -12791)" fill="#f3b734"/>
        <path id="Path_1912" data-name="Path 1912" d="M6.57,11.67h2.1c.2,0,.18-.12.18-.24V6.68c0-.15,0-.21.2-.21H15.9A8.27,8.27,0,0,1,21.8,9a7.29,7.29,0,0,1,1.56,2.42.29.29,0,0,0,.32.23h1.57c.17,0,.24,0,.23.23v1.43c0,.17,0,.22-.21.22H24.08c-.15,0-.21,0-.19.2a7.21,7.21,0,0,1,0,1.54c0,.17,0,.24.21.23h1.18c.15,0,.22,0,.21.19v1.48c0,.17-.06.2-.21.2H23.63a.28.28,0,0,0-.3.19,7.93,7.93,0,0,1-6.4,4.85c-.36.06-.73.08-1.1.12h-7V17.64c0-.22-.07-.25-.26-.25h-2V15.51h2.1c.15,0,.19,0,.19-.19V13.81c0-.21,0-.28-.26-.27h-2Zm9.46,0h5.15c.19,0,.24,0,.14-.22a6.08,6.08,0,0,0-1.24-1.61,6.63,6.63,0,0,0-4.52-1.7H10.91c-.19,0-.24.06-.24.25v3c0,.22.05.28.28.28Zm0,5.69H10.9c-.18,0-.24.05-.24.24v3c0,.24.08.28.29.27h4.42A7.27,7.27,0,0,0,17,20.7a6.08,6.08,0,0,0,4.31-3.08c.11-.2.08-.24-.15-.24-1.71.01-3.41,0-5.16,0Zm.28-1.86h5.41c.2,0,.26,0,.28-.25a10.44,10.44,0,0,0,0-1.48c0-.19-.08-.24-.27-.24H10.93c-.2,0-.27,0-.26.25v1.46c0,.22.07.26.27.26Z" transform="translate(-13078.57 -12791.47)" fill="#fff"/>
      </g>
    </g>
  </g>
</svg>
