<svg xmlns="http://www.w3.org/2000/svg" width="30" height="29" viewBox="0 0 30 29">
  <g id="Group_2321" data-name="Group 2321" transform="translate(13319 12791)">
    <g id="Group_2308" data-name="Group 2308" transform="translate(-13319 -12791)">
      <rect id="Rectangle_1432" data-name="Rectangle 1432" width="30" height="29" fill="#ddb203"/>
    </g>
    <path id="Path_25" data-name="Path 25" d="M145.636,152a1.23,1.23,0,0,1-1.219-1.622,1.2,1.2,0,0,1,1.158-.815c.7-.007,1.39-.016,2.084,0,.272.007.333-.076.332-.338-.011-2.185,0-4.37-.013-6.555,0-.3.066-.4.389-.4,1.465.016,2.929,0,4.394,0a8.439,8.439,0,0,1,6.154,2.665,8.054,8.054,0,0,1,1.986,8.433,8.206,8.206,0,0,1-6.576,5.753,7.49,7.49,0,0,1-1.5.141c-1.49,0-2.981-.011-4.465.007-.3,0-.369-.092-.362-.381.011-2.184,0-4.368.012-6.55,0-.275-.056-.372-.349-.362C146.975,152.006,146.306,152,145.636,152Zm4.788-4.79c0,.694,0,1.389-.018,2.082,0,.217.065.278.278.274.682-.012,1.364-.006,2.045,0a1.218,1.218,0,1,1,.007,2.427h-2.045c-.13,0-.284-.047-.284.186q.007,2.233,0,4.465c0,.146.052.2.2.2a18.706,18.706,0,0,0,3.472-.152,6.244,6.244,0,0,0,4.732-4.921,6.054,6.054,0,0,0-2.718-6.1,6.741,6.741,0,0,0-4.244-.94c-.4,0-.8,0-1.207-.016-.183-.007-.241.06-.234.241.012.753.012,1.508.017,2.263Z" transform="translate(-13456.853 -12927.27)" fill="#fff"/>
  </g>
</svg>
