<svg id="Group_2532" data-name="Group 2532" xmlns="http://www.w3.org/2000/svg" width="30" height="29" viewBox="0 0 30 29">
  <rect id="Rectangle_1432" data-name="Rectangle 1432" width="30" height="29"/>
  <path id="Path_1670" data-name="Path 1670" d="M8.516,6.833a3.724,3.724,0,0,1,2.379.893c.5.417.993.845,1.483,1.275a.416.416,0,0,0,.377.11c.546-.1,1.092-.2,1.639-.285.241-.04.487-.057.731-.085A1.692,1.692,0,0,1,15.5,8.7a7.99,7.99,0,0,1,1.045.161,1.835,1.835,0,0,0,1.033-.026,9.7,9.7,0,0,0,1.638-.765,17.2,17.2,0,0,1,2.42-1.151,4.313,4.313,0,0,1,1.652-.282,2.636,2.636,0,0,1,1.685.754,1.337,1.337,0,0,1,.4,1.438,3.726,3.726,0,0,1-1.859,2.393c-.5.284-1.006.552-1.526.793a1.07,1.07,0,0,0-.656.787c-.133.629-.271,1.258-.393,1.89-.184.946-.35,1.9-.537,2.842a21.621,21.621,0,0,1-.83,3.047,10.986,10.986,0,0,1-1.426,2.837,5.159,5.159,0,0,1-2.121,1.786,4.676,4.676,0,0,1-1.481.356,1.493,1.493,0,0,1-.863-.227A4.2,4.2,0,0,1,12.1,23.893a9.63,9.63,0,0,1-.616-1.3,6.828,6.828,0,0,1-.53-2.723c0-.36-.053-.72-.084-1.08-.04-.476-.084-.95-.121-1.426a11.02,11.02,0,0,0-.324-1.834c-.3-1.16-.575-2.326-.872-3.488a.893.893,0,0,0-.224-.4c-.323-.308-.672-.589-1-.887a11.4,11.4,0,0,1-.872-.816,1.986,1.986,0,0,1-.371-2.2,1.243,1.243,0,0,1,1.325-.9ZM12.788,23.3c.007.089.012.212.028.334a1.356,1.356,0,0,0,.413.88,1.471,1.471,0,0,0,.98.381,2.879,2.879,0,0,0,2.268-.919,1.834,1.834,0,0,0,.29-2.153,2.173,2.173,0,0,0-2.233-1.03,2.022,2.022,0,0,0-1.5,1.173A3.486,3.486,0,0,0,12.788,23.3Zm5.428-6.554c.086-.011.185-.019.284-.038a.734.734,0,0,0,.5-.318,2.077,2.077,0,0,0,.4-1.441c-.023-.168-.09-.332-.107-.5a1.987,1.987,0,0,0-.458-1.06,1.031,1.031,0,0,0-.594-.392.966.966,0,0,0-.833.231,2.663,2.663,0,0,0-1.016,2.187,1.1,1.1,0,0,0,.709,1.092A3.909,3.909,0,0,0,18.216,16.742Zm-4.567-1.869a1.5,1.5,0,0,0-.256-.9,1.044,1.044,0,0,0-1.8.073,1.644,1.644,0,0,0-.043,1.468,1.043,1.043,0,0,0,1.563.425A1.309,1.309,0,0,0,13.649,14.873Zm6.743-5.822-.18-.127a.224.224,0,0,0-.351.062.309.309,0,0,1-.292.163c-.146,0-.29.008-.435.02a.2.2,0,0,0-.179.172c-.005.041.071.095.116.136a1.476,1.476,0,0,1,.221.2.218.218,0,0,1-.123.369,1.625,1.625,0,0,1-.338.063c-.119.015-.134.036-.1.15a.361.361,0,0,0,.342.244.165.165,0,0,1,.168.133c.059.187.17.227.344.157a.308.308,0,0,0,.184-.293c.014-.156.011-.313.026-.469.023-.249.119-.427.4-.461a1.472,1.472,0,0,0,.17-.043l-.231-.277Z" transform="translate(-1.169 -1.601)" fill="#fff"/>
</svg>
