<svg id="Group_2308" data-name="Group 2308" xmlns="http://www.w3.org/2000/svg" width="30" height="29" viewBox="0 0 30 29">
  <rect id="Rectangle_1432" data-name="Rectangle 1432" width="30" height="29" fill="#2a7ffe"/>
  <path id="Path_35" data-name="Path 35" d="M180.48,151.383l2.066-.626a.688.688,0,0,1-.018.076c-.134.46-.268.92-.4,1.38a.118.118,0,0,1-.1.09c-.654.184-1.3.371-1.963.555a.106.106,0,0,0-.083.084q-.654,2.214-1.31,4.427a.563.563,0,0,0-.013.059h7.194a.4.4,0,0,1,.391.529c-.2.71-.4,1.406-.609,2.109a.473.473,0,0,1-.484.362H174.08l1.852-6.316-2.07.627c.009-.037.014-.059.021-.08q.214-.656.426-1.312a.127.127,0,0,1,.095-.091c.649-.2,1.3-.393,1.946-.591a.1.1,0,0,0,.076-.076l2.583-8.782a.487.487,0,0,1,.506-.377h2.746a.4.4,0,0,1,.4.542q-.653,2.238-1.314,4.472l-.846,2.876A.264.264,0,0,0,180.48,151.383Z" transform="translate(-165.063 -137.428)" fill="#fff"/>
</svg>
