<svg xmlns="http://www.w3.org/2000/svg" width="30" height="29" viewBox="0 0 30 29">
  <g id="Group_2325" data-name="Group 2325" transform="translate(13038 12791)">
    <g id="Group_2308" data-name="Group 2308" transform="translate(-13038 -12791)">
      <rect id="Rectangle_1432" data-name="Rectangle 1432" width="30" height="29" fill="#fd9903"/>
    </g>
    <path id="Path_377" data-name="Path 377" d="M14.78,7h6.158a2.547,2.547,0,0,1,2.693,2.01,2.732,2.732,0,0,1-.322,2.127L16.731,22.419l-1.054,1.815a.976.976,0,0,1-1.776,0C11.393,19.872,8.9,15.451,6.368,11.128a2.85,2.85,0,0,1-.439-2.176A2.557,2.557,0,0,1,8.456,7Zm.976,13.223h.068c.439-.751.878-1.513,1.327-2.264,1.454-2.547,2.967-5.1,4.46-7.7.449-.781.117-1.366-.781-1.376H16.039c-.283,0-.283.068-.283.322Zm-1.952,0h.068v-11c0-.2,0-.342-.263-.342H8.622c-.771,0-1.025.488-.654,1.142l5.24,9.134Z" transform="translate(-13008.205 -12761.821) rotate(180)" fill="#fefefe"/>
  </g>
</svg>
