<svg xmlns="http://www.w3.org/2000/svg" width="30" height="29" viewBox="0 0 30 29">
  <g id="Group_3634" data-name="Group 3634" transform="translate(13078 12791)">
    <rect id="Rectangle_1731" data-name="Rectangle 1731" width="30" height="29" transform="translate(-13078 -12791)"/>
    <g id="zDm9kO.tif" transform="translate(-12965.415 -12698.218)">
      <g id="Group_3633" data-name="Group 3633" transform="translate(-107 -86)">
        <path id="Path_1915" data-name="Path 1915" d="M-104.222-86c.275.282.545.57.826.846q1.664,1.632,3.334,3.258A3.335,3.335,0,0,0-95.9-81.3a8.27,8.27,0,0,0,1.489-1.26c1.133-1.082,2.246-2.185,3.365-3.282a.877.877,0,0,0,.1-.154c.862,0,1.724,0,2.585,0a.6.6,0,0,1,.193.074,1.289,1.289,0,0,0-.213.139q-2.413,2.357-4.82,4.719A6.417,6.417,0,0,1-96.2-79.126a5.323,5.323,0,0,1-5.209-1.412q-2.7-2.616-5.383-5.245a1.3,1.3,0,0,0-.213-.139.6.6,0,0,1,.193-.074C-105.945-86-105.084-86-104.222-86Z" transform="translate(107 86)" fill="#fff"/>
        <path id="Path_1916" data-name="Path 1916" d="M-90.948,29.624c-.267-.286-.524-.582-.8-.855q-1.694-1.653-3.4-3.292a3.334,3.334,0,0,0-4.714-.12c-1.456,1.334-2.851,2.735-4.271,4.108a.6.6,0,0,0-.085.158c-.862,0-1.724,0-2.585,0a.6.6,0,0,1-.193-.074c.493-.46.993-.913,1.479-1.382,1.478-1.427,2.923-2.891,4.434-4.283a5.33,5.33,0,0,1,6-.7,9.819,9.819,0,0,1,2.181,1.814c1.52,1.458,3.017,2.942,4.525,4.413a1.294,1.294,0,0,0,.213.139.6.6,0,0,1-.193.074C-89.225,29.626-90.086,29.624-90.948,29.624Z" transform="translate(107 -14.19)" fill="#fff"/>
      </g>
    </g>
  </g>
</svg>
