<svg id="Group_2308" data-name="Group 2308" xmlns="http://www.w3.org/2000/svg" width="30" height="29" viewBox="0 0 30 29">
  <rect id="Rectangle_1432" data-name="Rectangle 1432" width="30" height="29" fill="#ff2424"/>
  <g id="Group_17" data-name="Group 17" transform="translate(6.936 5.994)">
    <g id="Group_931" data-name="Group 931" transform="translate(3.27 7.939)">
      <path id="Path_8575" data-name="Path 8575" d="M294.665,237.983a.939.939,0,0,1-.271.277,4.688,4.688,0,0,1-1.784.673,2.19,2.19,0,0,1-.923.026c-.078-.04-.092-.07-.062-.171a1.358,1.358,0,0,1,.547-.656c.151-.11.766-.483,1.052-.64a3.715,3.715,0,0,1,1.107-.449.574.574,0,0,1,.21,0c.051.019.106.169.129.349A4.607,4.607,0,0,1,294.665,237.983Z" transform="translate(-284.945 -237.032)"/>
      <path id="Path_8576" data-name="Path 8576" d="M180.133,239.37a.3.3,0,0,1-.2.084,3.163,3.163,0,0,1-.554-.014,5.8,5.8,0,0,1-1.687-.485,2.122,2.122,0,0,1-.581-.389l-.078-.081-.008-.107a2.96,2.96,0,0,1,.011-.581.758.758,0,0,1,.088-.247c.022-.028.022-.028.124-.028a1.207,1.207,0,0,1,.395.073,7.708,7.708,0,0,1,1.484.738,2.573,2.573,0,0,1,.858.667C180.091,239.131,180.16,239.314,180.133,239.37Z" transform="translate(-177.02 -237.49)"/>
      <path id="Path_8577" data-name="Path 8577" d="M232.513,293.792c0,.008-.033.143-.076.3s-.076.291-.076.294a.466.466,0,0,1-.092,0h-.092l-.124.291c-.067.16-.128.308-.137.331l-.017.039-.058-.092-.058-.092v-.777l-.023.006c-.048.011-.387.058-.535.07a7.625,7.625,0,0,1-1.846-.04,1.829,1.829,0,0,0-.185-.022s0,.185.006.4l.008.4-.048.073c-.025.04-.051.073-.051.077a.623.623,0,0,1-.1-.166,1.86,1.86,0,0,1-.157-.426l-.019-.081-.087.006-.088.008-.022-.1c-.012-.058-.026-.143-.03-.191l-.008-.092-.074-.066c-.042-.037-.084-.073-.092-.078a.062.062,0,0,1-.019-.048v-.035h.7l.011.036.012.037.121.006.472.014.349.008.092-.14.092-.14h.116v-.572l-.154-.066a1.5,1.5,0,0,1-.9-.771,1.063,1.063,0,0,1-.029-.364,1.094,1.094,0,0,1,.017-.369.407.407,0,0,1,.291-.286,6.725,6.725,0,0,1,.835-.014h.78l.088.042a.489.489,0,0,1,.21.166.461.461,0,0,1,.088.331,2.439,2.439,0,0,1-.042.538,1.149,1.149,0,0,1-.162.322,1.493,1.493,0,0,1-.628.44l-.067.025v.59l.062.006.062.006.084.126.081.126h.376c.208,0,.389,0,.407.006s.034,0,.062-.045l.034-.05h.323A1.015,1.015,0,0,1,232.513,293.792Z" transform="translate(-225.429 -288.008)"/>
      <path id="Path_8578" data-name="Path 8578" d="M251.056,346.4c-.053.03-.092.045-.1.039l-.092-.067-.076-.062-.078.084c-.171.185-.174.194-.227.2-.078.008-.092-.006-.191-.149-.051-.073-.092-.135-.092-.135s-.037-.006-.078-.008l-.078-.008-.037.076-.036.076-.065-.019a1.325,1.325,0,0,1-.149-.058l-.084-.042v-.16h1.491v.076C251.174,346.331,251.179,346.325,251.056,346.4Z" transform="translate(-245.453 -339.81)"/>
    </g>
    <path id="Path_8579" data-name="Path 8579" d="M141.181,269.694a.326.326,0,0,0-.006-.062,5.965,5.965,0,0,0-4.378,1.355,3.4,3.4,0,0,0-3.268-2.636,4.18,4.18,0,0,0-3.691,2.636,4.846,4.846,0,0,0-4.257-1.4v.054a2.4,2.4,0,0,0,.058.855,5.451,5.451,0,0,0,1.869,2.547,10.8,10.8,0,0,0,5.629,2.551,9.769,9.769,0,0,0,6.159-2.44,8.7,8.7,0,0,0,.774-.777,4.24,4.24,0,0,0,.412-.554c-.006,0,0-.006.011-.011s.017-.014.011-.019,0-.011.012-.014.014-.008.011-.014,0-.011.011-.014a.013.013,0,0,0,.008-.006.013.013,0,0,0,0-.01.007.007,0,0,1,0-.007.007.007,0,0,1,.006,0c.006,0,.011-.008.011-.014s.006-.014.012-.014a.012.012,0,0,0,.011-.012.277.277,0,0,1,.037-.064c.042-.065.21-.369.233-.415a3.865,3.865,0,0,0,.308-1.007,3.422,3.422,0,0,0,.019-.508Zm-7.013,3.422c-.053.03-.092.045-.1.039l-.092-.067-.076-.062-.078.084c-.171.185-.174.194-.227.2-.078.008-.092-.006-.191-.149-.051-.073-.092-.135-.092-.135s-.037-.006-.078-.008l-.078-.008-.037.076-.036.076-.065-.019a1.32,1.32,0,0,1-.149-.058l-.084-.042v-.16h1.491v.076c.013.094.016.089-.108.161Zm1.4-.5c-.042.16-.076.291-.076.294a.462.462,0,0,1-.092,0h-.092l-.12.294c-.067.16-.128.308-.137.331l-.017.039-.058-.092-.058-.092v-.777l-.023.006c-.048.011-.387.058-.535.07a7.627,7.627,0,0,1-1.846-.04,1.8,1.8,0,0,0-.185-.022s0,.185.006.4l.008.4-.048.073c-.025.04-.051.073-.051.077a.624.624,0,0,1-.1-.166,1.863,1.863,0,0,1-.157-.426l-.019-.081-.087.006-.088.008-.022-.1c-.012-.058-.026-.143-.03-.191l-.008-.092-.075-.066c-.042-.037-.084-.073-.092-.078a.062.062,0,0,1-.019-.048V272.3h.7l.011.036.012.037.121.006.472.014.349.008.092-.14.092-.14h.116v-.581l-.154-.067a1.5,1.5,0,0,1-.9-.771,1.063,1.063,0,0,1-.029-.364,1.1,1.1,0,0,1,.017-.369.407.407,0,0,1,.291-.286,6.725,6.725,0,0,1,.835-.014h.78l.088.042a.488.488,0,0,1,.21.166.461.461,0,0,1,.088.331,2.442,2.442,0,0,1-.042.538,1.15,1.15,0,0,1-.162.322,1.494,1.494,0,0,1-.628.44l-.067.025v.59l.062.006.062.006.084.126.081.126h.376c.208,0,.389,0,.407.006s.034,0,.062-.045l.034-.05h.323a1.185,1.185,0,0,1,.322.011,1.91,1.91,0,0,0-.078.3Z" transform="translate(-125.296 -258.589)" fill="#fff"/>
    <path id="Path_8580" data-name="Path 8580" d="M121.111,289.61a2.51,2.51,0,0,0-.277.054" transform="translate(-120.83 -278.611)" fill="none"/>
    <path id="Path_8581" data-name="Path 8581" d="M393.959,290.407a2.5,2.5,0,0,0-.249-.037" transform="translate(-377.833 -279.327)" fill="none"/>
    <path id="Path_8582" data-name="Path 8582" d="M141.241,111.395c-.006-.126-.017-.3-.025-.389a8.234,8.234,0,0,0-1.063-3.414,1.029,1.029,0,0,1-.062-.116.112.112,0,0,1-.011-.022h0c.087-.263.443-1.354.726-2.6.384-1.693.628-3.674-.116-4.268,0,0-1.292-.092-3.017,1.6a11.625,11.625,0,0,0-1.28,1.517l-.121-.039a8.743,8.743,0,0,0-2.143-.415c-.219-.017-1.034-.017-1.3,0a7.567,7.567,0,0,0-2.122.418c-.028.011-.054.019-.078.028a11.471,11.471,0,0,0-1.32-1.506c-1.8-1.7-3.137-1.6-3.137-1.6-.791.615-.523,2.684-.113,4.434.269,1.158.6,2.176.723,2.544a.552.552,0,0,1-.03.062,10.173,10.173,0,0,0-1.091,3.956,4.845,4.845,0,0,1,4.26,1.4,4.182,4.182,0,0,1,3.691-2.636,3.4,3.4,0,0,1,3.268,2.636,5.98,5.98,0,0,1,4.378-1.355C141.252,111.56,141.246,111.477,141.241,111.395Zm-13.934-4.9s-1.047-2.623-.78-4.12h0a1.447,1.447,0,0,1,.261-.64s1.189.116,3.107,2.25a5.468,5.468,0,0,0-.853.554h-.006a6.748,6.748,0,0,0-1.728,1.953Zm4.451,3.9a.3.3,0,0,1-.2.084,3.167,3.167,0,0,1-.554-.014,5.8,5.8,0,0,1-1.687-.485,2.123,2.123,0,0,1-.582-.389l-.078-.081-.008-.107a2.957,2.957,0,0,1,.011-.582.757.757,0,0,1,.088-.247c.022-.028.022-.028.124-.028a1.207,1.207,0,0,1,.395.073,7.709,7.709,0,0,1,1.484.738,2.573,2.573,0,0,1,.858.667c.106.131.175.313.149.369Zm6.607-.931a.938.938,0,0,1-.271.277,4.688,4.688,0,0,1-1.784.673,2.191,2.191,0,0,1-.923.026c-.078-.04-.092-.07-.062-.171a1.358,1.358,0,0,1,.547-.656c.151-.11.766-.483,1.052-.64a3.715,3.715,0,0,1,1.107-.449.574.574,0,0,1,.21,0c.051.019.106.169.129.349a4.616,4.616,0,0,1-.006.593Zm-.461-4.928H137.9a5.259,5.259,0,0,0-.825-.554c1.854-2.132,3-2.25,3-2.25a1.519,1.519,0,0,1,.253.64h0a10.542,10.542,0,0,1-.752,4.123,6.68,6.68,0,0,0-1.671-1.961Z" transform="translate(-125.378 -100.572)" fill="#ffa409"/>
    <path id="Path_8583" data-name="Path 8583" d="M309.844,154.21c-.006.006-.008.014-.014.019" transform="translate(-298.834 -151.089)" fill="none"/>
    <path id="Path_8584" data-name="Path 8584" d="M373.139,218.66c-.014.039-.019.058-.019.058" transform="translate(-358.441 -211.79)" fill="none"/>
    <g id="Group_934" data-name="Group 934" transform="translate(11.695 1.16)">
      <g id="Group_933" data-name="Group 933" transform="translate(0 0)">
        <g id="Group_932" data-name="Group 932">
          <path id="Path_8585" data-name="Path 8585" d="M325.086,121.159c-.219-.028-1.254-.034-2.426,2.162h-.006a5.26,5.26,0,0,0-.825-.554c1.854-2.132,3-2.249,3-2.249a1.491,1.491,0,0,1,.256.64Z" transform="translate(-321.83 -120.519)" fill="#ff9300"/>
        </g>
        <path id="Path_8586" data-name="Path 8586" d="M337.775,135.535a6.662,6.662,0,0,0-1.675-1.961c1.172-2.2,2.205-2.192,2.426-2.162h0A10.513,10.513,0,0,1,337.775,135.535Z" transform="translate(-335.27 -130.773)" fill="#ff8300"/>
        <path id="Path_8587" data-name="Path 8587" d="M377.842,131.518l-.042-.008Z" transform="translate(-374.544 -130.87)" fill="#ff8300"/>
      </g>
    </g>
    <path id="Path_8588" data-name="Path 8588" d="M211.057,154.206c-.028-.039-.058-.078-.087-.116" transform="translate(-205.726 -150.976)" fill="none"/>
    <path id="Path_8589" data-name="Path 8589" d="M144.93,220.54c.03.092.051.146.051.146" transform="translate(-143.527 -213.56)" fill="none"/>
    <g id="Group_937" data-name="Group 937" transform="translate(1.106 1.16)">
      <g id="Group_936" data-name="Group 936" transform="translate(0 0)">
        <g id="Group_935" data-name="Group 935" transform="translate(0.043)">
          <path id="Path_8590" data-name="Path 8590" d="M143.97,122.712a5.527,5.527,0,0,0-.853.554h-.006c-1.214-2.2-2.282-2.19-2.513-2.162a1.44,1.44,0,0,1,.26-.64S142.052,120.579,143.97,122.712Z" transform="translate(-140.599 -120.463)" fill="#ff9300"/>
        </g>
        <path id="Path_8591" data-name="Path 8591" d="M142.407,133.576a6.726,6.726,0,0,0-1.736,1.961s-1.047-2.622-.78-4.123h0C140.121,131.383,141.2,131.379,142.407,133.576Z" transform="translate(-139.848 -130.773)" fill="#ff8300"/>
        <path id="Path_8592" data-name="Path 8592" d="M139.915,131.51l-.045.008Z" transform="translate(-139.869 -130.87)" fill="#ff8300"/>
      </g>
    </g>
    <path id="Path_8593" data-name="Path 8593" d="M303.228,204.622s-.9.058-.785-.646a.923.923,0,0,1,1.009-.757c.195.03.982.308.842.9s-.336.476-.448.5A4.424,4.424,0,0,1,303.228,204.622Z" transform="translate(-291.867 -197.243)" fill="#fff"/>
    <path id="Path_8594" data-name="Path 8594" d="M189.477,204.622s-.9.058-.785-.646a.923.923,0,0,1,1.01-.757c.195.03.982.308.842.9s-.337.476-.448.5a4.429,4.429,0,0,1-.617,0Z" transform="translate(-184.735 -197.243)" fill="#fff"/>
  </g>
</svg>
