<svg xmlns="http://www.w3.org/2000/svg" width="30" height="29" viewBox="0 0 30 29">
  <g id="Group_3632" data-name="Group 3632" transform="translate(-11994 -12178)">
    <g id="Group_2323" data-name="Group 2323" transform="translate(25072 24969)">
      <rect id="Rectangle_1731" data-name="Rectangle 1731" width="30" height="29" transform="translate(-13078 -12791)" fill="#0d192b"/>
      <g id="Group_3631" data-name="Group 3631" transform="translate(-13078.955 -12791.836)">
        <path id="Path_1912" data-name="Path 1912" d="M14.415,11.508H7.74a.677.677,0,0,1-.165-.017.3.3,0,0,1-.156-.517c.319-.342.643-.68.965-1.019C8.991,9.318,9.6,8.684,10.2,8.043a.8.8,0,0,1,.615-.265H24.191a.554.554,0,0,1,.188.026.305.305,0,0,1,.12.507q-.713.754-1.43,1.5-.7.734-1.4,1.468a.726.726,0,0,1-.558.229l-6.291,0h-.408Z" transform="translate(0 0)" fill="#b848ee"/>
        <path id="Path_1913" data-name="Path 1913" d="M14.43,12.84h6.685a.768.768,0,0,1,.585.256q.914.966,1.834,1.93c.31.327.621.655.934.98a.314.314,0,0,1,.091.379.344.344,0,0,1-.344.191c-.485,0-.968,0-1.453,0l-11.954,0a.762.762,0,0,1-.586-.251c-.717-.758-1.44-1.51-2.161-2.264L7.442,13.4a.312.312,0,0,1-.1-.356.334.334,0,0,1,.327-.2c.132,0,.263,0,.4,0h6.36Z" transform="translate(0 0.629)" fill="#7d80d2"/>
        <path id="Path_1914" data-name="Path 1914" d="M14.418,21.631H7.744a.626.626,0,0,1-.189-.022A.292.292,0,0,1,7.42,21.1c.317-.338.637-.673.958-1.009.609-.64,1.222-1.277,1.828-1.92a.788.788,0,0,1,.6-.264l11.656,0c.577,0,1.152,0,1.729,0a.586.586,0,0,1,.153.018.3.3,0,0,1,.146.517c-.3.323-.611.643-.916.965-.611.639-1.227,1.273-1.829,1.918a.914.914,0,0,1-.716.314Q17.725,21.626,14.418,21.631Z" transform="translate(0 1.259)" fill="#65c7b9"/>
      </g>
    </g>
  </g>
</svg>
