<svg xmlns="http://www.w3.org/2000/svg" width="30" height="29" viewBox="0 0 30 29">
  <g id="Group_2325" data-name="Group 2325" transform="translate(12998 12791)">
    <g id="Group_2308" data-name="Group 2308" transform="translate(-12998 -12791)">
      <rect id="Rectangle_1432" data-name="Rectangle 1432" width="30" height="29" fill="#0388ca"/>
    </g>
    <path id="Path_1613" data-name="Path 1613" d="M14.373,7h5.876a2.431,2.431,0,0,1,2.57,1.918,2.608,2.608,0,0,1-.307,2.03L16.235,21.714,15.23,23.446a.931.931,0,0,1-1.695,0c-2.393-4.163-4.778-8.382-7.19-12.507a2.719,2.719,0,0,1-.419-2.077A2.44,2.44,0,0,1,8.338,7ZM15.3,19.618h.065c.419-.717.838-1.444,1.267-2.161,1.388-2.431,2.831-4.871,4.256-7.348.428-.745.112-1.3-.745-1.313H15.574c-.27,0-.27.065-.27.307Zm-1.863,0h.065V9.123c0-.186,0-.326-.251-.326H8.5c-.736,0-.978.466-.624,1.09l5,8.717Z" transform="translate(-12997.387 -12791.991)" fill="#fefefe"/>
  </g>
</svg>
